<?xml version="1.0" standalone="no"?>
<!DOCTYPE svg PUBLIC "-//W3C//DTD SVG 20010904//EN"
 "http://www.w3.org/TR/2001/REC-SVG-20010904/DTD/svg10.dtd">
<svg version="1.0" xmlns="http://www.w3.org/2000/svg"
 width="495.000000pt" height="495.000000pt" viewBox="0 0 495.000000 495.000000"
 preserveAspectRatio="xMidYMid meet">
<metadata>
Created by potrace 1.11, written by Peter Selinger 2001-2013
</metadata>
<g transform="translate(0.000000,495.000000) scale(0.100000,-0.100000)"
fill="#000000" stroke="none">
<path d="M231 4938 c-48 -13 -137 -105 -150 -155 -8 -29 -10 -709 -9 -2336 l3
-2295 30 -43 c17 -23 47 -56 68 -73 l39 -31 2249 -3 c1963 -2 2253 0 2278 13
48 24 91 65 111 106 20 38 20 75 20 2349 0 2278 0 2311 -20 2349 -24 49 -93
108 -139 121 -49 13 -4433 12 -4480 -2z"/>
</g>
</svg>
